<svg xmlns="http://www.w3.org/2000/svg" viewBox="0 0 200 60" width="200" height="60">
  <!-- Lightbulb innovation icon -->
  <g transform="translate(10,6)">
    <path d="M16 0 C8 0 0 8 0 16 C0 22 4 26 8 30 L8 36 L24 36 L24 30 C28 26 32 22 32 16 C32 8 24 0 16 0Z" fill="none" stroke="#003DA6" stroke-width="2.5"/>
    <rect x="8" y="38" width="16" height="3" rx="1" fill="#003DA6"/>
    <rect x="10" y="43" width="12" height="3" rx="1" fill="#003DA6"/>
    <line x1="16" y1="10" x2="16" y2="24" stroke="#F4B400" stroke-width="2.5"/>
    <line x1="10" y1="17" x2="22" y2="17" stroke="#F4B400" stroke-width="2.5"/>
  </g>
  <text x="50" y="22" font-family="Arial, Helvetica, sans-serif" font-weight="400" font-size="9" fill="#003DA6" letter-spacing="0.5">CENTRO DE</text>
  <text x="50" y="36" font-family="Arial, Helvetica, sans-serif" font-weight="800" font-size="13" fill="#003DA6">INNOVACIÓN</text>
  <text x="50" y="50" font-family="Arial, Helvetica, sans-serif" font-weight="700" font-size="13" fill="#003DA6">UC</text>
</svg>